# xmcd
# 
# Track frame offsets:
#     150
#     18465
#     41537
#     61881
#     78455
#     105293
#     122751
#     143775
#     161255
# 
# Disc length: 2468
# 
# Revision: 1
# Processed by: cddbd v1.5.2PL0 Copyright (c) Steve Scherf et al.
# Submitted via: fre:ac v1.0.31
# 
DISCID=6709a209
DTITLE=Norah Jones - Day Breaks CD 2
DYEAR=2017
DGENRE=Blues
TTITLE0=Peace
TTITLE1=I've got to see you again
TTITLE2=Out on the road
TTITLE3=Sunrise
TTITLE4=Burn
TTITLE5=It's a wonderful time for love
TTITLE6=Flipside
TTITLE7=Don't know why
TTITLE8=Fleurette Americaine
EXTD=Live
EXTT0=
EXTT1=
EXTT2=
EXTT3=
EXTT4=
EXTT5=
EXTT6=
EXTT7=
EXTT8=
PLAYORDER=
